<svg height="480pt" viewBox="0 0 480 480" width="480pt" xmlns="http://www.w3.org/2000/svg"><path d="m472 240c0 128.128906-103.871094 232-232 232s-232-103.871094-232-232 103.871094-232 232-232 232 103.871094 232 232zm0 0" fill="#3d9ae2"/><path d="m352 187.519531v188.480469h-224v-188.480469l112-43.519531zm0 0" fill="#d1d3d4"/><path d="m344 160v-48h-32v35.992188l30.894531 12.007812zm0 0" fill="#ff5023"/><path d="m342.894531 160h-.015625.015625l-30.894531-12.007812v.007812-.007812l-72-27.992188-128 49.761719-16 6.238281v24l16-6.238281 16-6.226563v-.015625.015625l112-43.535156 112 43.535156v-.015625.015625l16 6.226563 16 6.238281v-24l-16-6.238281zm0 0" fill="#ff5023"/><path d="m208 304h64v72h-64zm0 0" fill="#6d6e71"/><path d="m168 208h32v48h-32zm0 0" fill="#00d7df"/><path d="m280 208h32v48h-32zm0 0" fill="#00d7df"/><g fill="#231f20"><path d="m240 0c-132.546875 0-240 107.453125-240 240s107.453125 240 240 240 240-107.453125 240-240c-.148438-132.484375-107.515625-239.851562-240-240zm0 464c-123.710938 0-224-100.289062-224-224s100.289062-224 224-224 224 100.289062 224 224c-.140625 123.652344-100.347656 223.859375-224 224zm0 0"/><path d="m386.902344 168.542969-34.902344-13.566407v-42.976562c0-4.417969-3.582031-8-8-8h-32c-4.417969 0-8 3.582031-8 8v24.304688l-61.105469-23.761719c-1.859375-.726563-3.929687-.726563-5.789062 0l-144 56c-3.078125 1.195312-5.105469 4.15625-5.105469 7.457031v24c0 2.640625 1.304688 5.113281 3.484375 6.605469 2.179687 1.492187 4.957031 1.808593 7.417969.851562l21.097656-8.210937v176.753906c0 4.417969 3.582031 8 8 8h224c4.417969 0 8-3.582031 8-8v-176.753906l21.097656 8.210937c2.457032.957031 5.234375.640625 7.414063-.847656 2.183593-1.492187 3.488281-3.964844 3.488281-6.609375v-24c0-3.296875-2.023438-6.257812-5.097656-7.457031zm-66.902344-48.542969h16v28.753906l-16-6.226562zm-104 248v-56h48v56zm128 0h-64v-64c0-4.417969-3.582031-8-8-8h-64c-4.417969 0-8 3.582031-8 8v64h-64v-174.976562l104-40.4375 104 40.4375zm32-179.703125-133.105469-51.753906c-1.859375-.726563-3.929687-.726563-5.789062 0l-133.105469 51.753906v-6.832031l136-52.878906 136 52.878906zm0 0"/><path d="m200 200h-32c-4.417969 0-8 3.582031-8 8v48c0 4.417969 3.582031 8 8 8h32c4.417969 0 8-3.582031 8-8v-48c0-4.417969-3.582031-8-8-8zm-8 48h-16v-32h16zm0 0"/><path d="m280 264h32c4.417969 0 8-3.582031 8-8v-48c0-4.417969-3.582031-8-8-8h-32c-4.417969 0-8 3.582031-8 8v48c0 4.417969 3.582031 8 8 8zm8-48h16v32h-16zm0 0"/></g></svg>